<mxfile host="app.diagrams.net" agent="Mozilla/5.0 (Windows NT 10.0; Win64; x64) AppleWebKit/537.36 (KHTML, like Gecko) Chrome/122.0.0.0 Safari/537.36" version="26.2.14">
  <diagram name="1 oldal" id="ohfmbEw8cCkdrReCNdVJ">
    <mxGraphModel dx="3155" dy="791" grid="1" gridSize="10" guides="1" tooltips="1" connect="1" arrows="1" fold="1" page="1" pageScale="1" pageWidth="827" pageHeight="1169" math="0" shadow="0">
      <root>
        <mxCell id="0" />
        <mxCell id="1" parent="0" />
        <mxCell id="3Vun9gtLjNmnpAUXe5Oz-122" value="" style="rounded=0;whiteSpace=wrap;html=1;" vertex="1" parent="1">
          <mxGeometry x="-880" y="200" width="1080" height="480" as="geometry" />
        </mxCell>
        <mxCell id="3Vun9gtLjNmnpAUXe5Oz-123" value="" style="rounded=0;whiteSpace=wrap;html=1;" vertex="1" parent="1">
          <mxGeometry x="-880" y="200" width="1080" height="120" as="geometry" />
        </mxCell>
        <mxCell id="3Vun9gtLjNmnpAUXe5Oz-124" style="edgeStyle=orthogonalEdgeStyle;rounded=0;orthogonalLoop=1;jettySize=auto;html=1;exitX=0.5;exitY=0;exitDx=0;exitDy=0;" edge="1" parent="1" source="3Vun9gtLjNmnpAUXe5Oz-125">
          <mxGeometry relative="1" as="geometry">
            <mxPoint x="-340" y="660" as="targetPoint" />
          </mxGeometry>
        </mxCell>
        <mxCell id="3Vun9gtLjNmnpAUXe5Oz-125" value="" style="rounded=0;whiteSpace=wrap;html=1;" vertex="1" parent="1">
          <mxGeometry x="-880" y="660" width="1080" height="20" as="geometry" />
        </mxCell>
        <mxCell id="3Vun9gtLjNmnpAUXe5Oz-126" value="" style="rounded=0;whiteSpace=wrap;html=1;" vertex="1" parent="1">
          <mxGeometry x="100" y="200" width="100" height="120" as="geometry" />
        </mxCell>
        <mxCell id="3Vun9gtLjNmnpAUXe5Oz-127" value="" style="rounded=0;whiteSpace=wrap;html=1;" vertex="1" parent="1">
          <mxGeometry x="-770" y="230" width="120" height="60" as="geometry" />
        </mxCell>
        <mxCell id="3Vun9gtLjNmnpAUXe5Oz-129" value="" style="rounded=0;whiteSpace=wrap;html=1;" vertex="1" parent="1">
          <mxGeometry x="-620" y="230" width="120" height="60" as="geometry" />
        </mxCell>
        <mxCell id="3Vun9gtLjNmnpAUXe5Oz-131" value="" style="rounded=0;whiteSpace=wrap;html=1;" vertex="1" parent="1">
          <mxGeometry x="-470" y="230" width="120" height="60" as="geometry" />
        </mxCell>
        <mxCell id="3Vun9gtLjNmnpAUXe5Oz-132" value="" style="rounded=0;whiteSpace=wrap;html=1;" vertex="1" parent="1">
          <mxGeometry x="-810" y="320" width="940" height="340" as="geometry" />
        </mxCell>
        <mxCell id="3Vun9gtLjNmnpAUXe5Oz-133" value="Kezdőlap" style="text;html=1;align=center;verticalAlign=middle;whiteSpace=wrap;rounded=0;" vertex="1" parent="1">
          <mxGeometry x="-770" y="230" width="120" height="60" as="geometry" />
        </mxCell>
        <mxCell id="3Vun9gtLjNmnpAUXe5Oz-134" value="" style="rounded=0;whiteSpace=wrap;html=1;" vertex="1" parent="1">
          <mxGeometry x="-860" y="230" width="60" height="60" as="geometry" />
        </mxCell>
        <mxCell id="3Vun9gtLjNmnpAUXe5Oz-135" value="&lt;div&gt;Logo&lt;/div&gt;" style="text;html=1;align=center;verticalAlign=middle;whiteSpace=wrap;rounded=0;" vertex="1" parent="1">
          <mxGeometry x="-860" y="230" width="60" height="60" as="geometry" />
        </mxCell>
        <mxCell id="3Vun9gtLjNmnpAUXe5Oz-136" value="Admin Zenék" style="text;html=1;align=center;verticalAlign=middle;whiteSpace=wrap;rounded=0;" vertex="1" parent="1">
          <mxGeometry x="-620" y="230" width="120" height="60" as="geometry" />
        </mxCell>
        <mxCell id="3Vun9gtLjNmnpAUXe5Oz-137" value="Admin Filmek/Sorozatok" style="text;html=1;align=center;verticalAlign=middle;whiteSpace=wrap;rounded=0;" vertex="1" parent="1">
          <mxGeometry x="-470" y="230" width="120" height="60" as="geometry" />
        </mxCell>
        <mxCell id="3Vun9gtLjNmnpAUXe5Oz-139" value="Footer (C)" style="text;html=1;align=center;verticalAlign=middle;whiteSpace=wrap;rounded=0;" vertex="1" parent="1">
          <mxGeometry x="-880" y="660" width="1080" height="20" as="geometry" />
        </mxCell>
        <mxCell id="3Vun9gtLjNmnpAUXe5Oz-140" value="margin" style="text;html=1;align=center;verticalAlign=middle;whiteSpace=wrap;rounded=0;" vertex="1" parent="1">
          <mxGeometry x="-880" y="320" width="70" height="340" as="geometry" />
        </mxCell>
        <mxCell id="3Vun9gtLjNmnpAUXe5Oz-141" value="margin" style="text;html=1;align=center;verticalAlign=middle;whiteSpace=wrap;rounded=0;" vertex="1" parent="1">
          <mxGeometry x="130" y="320" width="70" height="340" as="geometry" />
        </mxCell>
        <mxCell id="3Vun9gtLjNmnpAUXe5Oz-142" value="ADMIN" style="rounded=0;whiteSpace=wrap;html=1;" vertex="1" parent="1">
          <mxGeometry x="105" y="240" width="90" height="40" as="geometry" />
        </mxCell>
        <mxCell id="3Vun9gtLjNmnpAUXe5Oz-143" value="Admin profilok" style="rounded=0;whiteSpace=wrap;html=1;" vertex="1" parent="1">
          <mxGeometry x="-100" y="230" width="150" height="60" as="geometry" />
        </mxCell>
        <mxCell id="3Vun9gtLjNmnpAUXe5Oz-149" value="Filmek" style="rounded=0;whiteSpace=wrap;html=1;" vertex="1" parent="1">
          <mxGeometry x="-570" y="400" width="160" height="120" as="geometry" />
        </mxCell>
        <mxCell id="3Vun9gtLjNmnpAUXe5Oz-150" value="Sorozatok" style="rounded=0;whiteSpace=wrap;html=1;" vertex="1" parent="1">
          <mxGeometry x="-290" y="400" width="160" height="120" as="geometry" />
        </mxCell>
        <mxCell id="3Vun9gtLjNmnpAUXe5Oz-151" value="Admin foglalások" style="rounded=0;whiteSpace=wrap;html=1;" vertex="1" parent="1">
          <mxGeometry x="-320" y="230" width="170" height="60" as="geometry" />
        </mxCell>
      </root>
    </mxGraphModel>
  </diagram>
</mxfile>
